# xmcd
#
# Track frame offsets:
# 150
# 16371
# 31427
# 44395
# 58028
# 72075
# 85503
# 98714
# 110142
# 120903
# 133765
# 143551
# 157657
# 169469
# 183632
# 195061
# 208035
# 221453
# 236053
# 250140
# 265484
# 278242
# 290760
# 306252
#
# Disc length: 4316 seconds
#
#
# Revision: 0
# Processed by: cddbd v1.5.1PL0 Copyright (c) Steve Scherf et al.
# Submitted via: FreeRIP 2.92 
#
DISCID=5d10da18
DTITLE=Lowell Fulson - Black Nights
DYEAR=2001
DGENRE=Blues
TTITLE0=Black Nights
TTITLE1=Just One More Time
TTITLE2=Every Time It Rains
TTITLE3=My Heart Belongs to You
TTITLE4=Too Many Drivers
TTITLE5=Key to My Heart
TTITLE6=Strange Feeling
TTITLE7=What's Gonna Be
TTITLE8=No More, Pt. 1
TTITLE9=No More, Pt. 2
TTITLE10=Little Angel
TTITLE11=Sittin' Here Thinkin'
TTITLE12=Shattered Dreams
TTITLE13=Blues Around Midnight
TTITLE14=Talkin' Woman
TTITLE15=Change Your Ways
TTITLE16=My Aching Back
TTITLE17=Trouble I'm In
TTITLE18=Ask at Any Door in Town
TTITLE19=Lonely Day
TTITLE20=Lonely Lonely Man [AKA My Story] [#]
TTITLE21=I Won't Care Anymore [#]
TTITLE22=Hustler's Game
TTITLE23=Year of 29
EXTD=
EXTT0=
EXTT1=
EXTT2=
EXTT3=
EXTT4=
EXTT5=
EXTT6=
EXTT7=
EXTT8=
EXTT9=
EXTT10=
EXTT11=
EXTT12=
EXTT13=
EXTT14=
EXTT15=
EXTT16=
EXTT17=
EXTT18=
EXTT19=
EXTT20=
EXTT21=
EXTT22=
EXTT23=
PLAYORDER=
